<?xml version="1.0" encoding="utf-8"?>
<!-- Generator: Adobe Illustrator 17.1.0, SVG Export Plug-In . SVG Version: 6.00 Build 0)  -->
<!DOCTYPE svg PUBLIC "-//W3C//DTD SVG 1.1//EN" "http://www.w3.org/Graphics/SVG/1.1/DTD/svg11.dtd">
<svg version="1.1" id="Layer_1" xmlns="http://www.w3.org/2000/svg" xmlns:xlink="http://www.w3.org/1999/xlink" x="0px" y="0px"
	 width="140px" height="140px" viewBox="0 0 140 140" enable-background="new 0 0 140 140" xml:space="preserve">
<circle fill="#FFFFFF" cx="70.2" cy="69.7" r="70"/>
<circle cx="70.2" cy="69.7" r="66.8"/>
<circle fill="#009A66" stroke="#FFFFFF" stroke-width="3.28" cx="70.2" cy="69.7" r="46.9"/>
<path fill="#FFFFFF" d="M16.4,36.2c-0.2-0.1-0.4-0.2-0.8,0.3l-0.2-0.2L21,29c1.6-2.1,3.5-3,5.4-1.6c1.2,0.9,1.3,2.2,0.7,3.4l0,0
	c1.3-1,2.7-1.4,4.2-0.3c1.5,1.2,2,3.3-0.1,6.1L25.6,44l-0.2-0.2c0.3-0.5,0.2-0.7,0.1-0.8L16.4,36.2z M21.9,35.8l2-2.6
	c1.3-1.7,1.5-2.2,0.7-2.8c-0.8-0.6-1.2-0.3-2.5,1.4l-2,2.6L21.9,35.8z M26.1,39.1l2.5-3.3c1-1.3,1.1-2.1,0.3-2.8
	c-0.8-0.6-1.6-0.3-2.6,1l-2.5,3.3L26.1,39.1z"/>
<path fill="#FFFFFF" d="M37.1,29.8c0.1,0.2,0.3,0.3,0.8-0.1l0.2,0.2l-4,3l-0.2-0.2c0.5-0.4,0.4-0.6,0.3-0.8l-6.8-9
	c-0.1-0.2-0.3-0.3-0.8,0.1l-0.2-0.2l7.1-5.3c2.9-2.2,4.8-2.1,6.5,0.1c1.3,1.8,0.9,3.6-0.4,5.3l4.7,1.5c0.4,0.1,0.6,0.1,0.8-0.1
	l0.2,0.2l-4,3l-0.2-0.2c0.3-0.2,0.3-0.4,0.2-0.7c-0.1-0.2-4.2-1.3-4.8-1.5l-1.9,1.4L37.1,29.8z M33.1,24.5l3.2-2.5
	c1.1-0.9,1.1-1.6,0.7-2.2c-0.4-0.6-1.2-0.8-2.3,0.1l-3.2,2.5L33.1,24.5z"/>
<path fill="#FFFFFF" d="M56.2,13.4c1.6,3.9-0.8,7.3-4.6,8.8c-3.8,1.5-7.9,0.7-9.4-3.3c-1.6-3.9,0.8-7.3,4.6-8.8
	C50.6,8.6,54.7,9.5,56.2,13.4z M45.5,17.6c0.8,2.1,3,2.6,5,1.9c2-0.8,3.2-2.7,2.4-4.8c-0.8-2.1-3-2.6-5-1.9
	C45.9,13.6,44.7,15.5,45.5,17.6z"/>
<path fill="#FFFFFF" d="M71.9,11.7c0.4,4.2-2.8,6.8-6.9,7.2c-4.1,0.4-7.7-1.5-8.2-5.7C56.4,9,59.6,6.4,63.7,6
	C67.8,5.6,71.4,7.5,71.9,11.7z M60.4,12.9c0.2,2.3,2.2,3.4,4.3,3.1c2.1-0.2,3.8-1.7,3.6-3.9c-0.2-2.3-2.2-3.4-4.3-3.1
	C61.9,9.2,60.2,10.6,60.4,12.9z"/>
<path fill="#FFFFFF" d="M81.6,19.7l0-0.3c0.3,0,0.5,0.1,0.5-0.2c0-0.3-2.2-5-2.4-5.6L77,15.3l-0.5,2.9c0,0.2,0,0.4,0.6,0.5l0,0.3
	l-4.9-0.8l0-0.3c0.6,0.1,0.7-0.1,0.7-0.3l1.9-11.1c0-0.2,0-0.4-0.6-0.5l0-0.3l4.9,0.8l0,0.3c-0.6-0.1-0.7,0.1-0.7,0.3l-0.7,4.3
	l0.2,0c2.2-1.5,5.4-3.4,5.4-3.6c0-0.3-0.1-0.3-0.4-0.4l0-0.3l6.1,1l0,0.3c-0.6-0.1-0.8,0.1-1.5,0.5l-4.7,2.9l3.6,8.1
	c0.2,0.4,0.4,0.5,0.7,0.5l0,0.3L81.6,19.7z"/>
<path fill="#FFFFFF" d="M92.3,20.3l7.5,3.7c0.2,0.1,0.4,0.1,0.7-0.4l0.3,0.1l-1.9,3.8l-0.3-0.1c0.2-0.5,0.1-0.6-0.1-0.8L87.1,21
	l0.1-0.3c0.6,0.2,0.7,0.1,0.8-0.1l5-10.1c0.1-0.2,0.1-0.4-0.4-0.7l0.1-0.3l4.5,2.2L97.1,12c-0.6-0.2-0.7-0.1-0.8,0.1L92.3,20.3z"/>
<path fill="#FFFFFF" d="M111.7,21.1l3.6,2.9l-0.2,0.2c-0.2-0.2-0.5-0.1-0.7,0l-7.7,2.3l-2.9,3.7c-0.1,0.2-0.2,0.3,0.3,0.8l-0.2,0.2
	L99.9,28l0.2-0.2c0.5,0.3,0.7,0.2,0.8,0.1l2.6-3.3l0.5-8.1c0.1-0.9,0.1-1-0.1-1.1l0.2-0.2l4.2,3.3l-0.2,0.2
	c-0.2-0.2-0.5-0.4-0.7-0.1c-0.2,0.2-0.3,3.4-0.4,4.9c0.5-0.2,4.6-1.3,4.7-1.5c0.2-0.2-0.1-0.4-0.2-0.6L111.7,21.1z"/>
<path fill="#FFFFFF" d="M116,25.7c0.2-0.1,0.3-0.3-0.1-0.8l0.2-0.2l3.6,4.6l-0.2,0.2c-0.4-0.4-0.5-0.4-0.7-0.3
	c-0.2,0.2-1.2,6.2-1.6,8.7l5.1-4c0.2-0.2,0.2-0.4,0-0.7l0.2-0.2l2.7,3.5l-0.2,0.2c-0.4-0.4-0.6-0.4-0.8-0.3l-8.9,6.9
	c-0.2,0.1-0.3,0.3,0.1,0.8l-0.2,0.2l-2.8-3.6l0.2-0.2c0.3,0.3,0.4,0.4,0.6,0.3c0.2-0.2,0.1-0.9,1.9-10.3l-6,4.6
	c-0.2,0.1-0.3,0.3,0.1,0.8l-0.2,0.2l-2.8-3.6l0.2-0.2c0.4,0.4,0.6,0.4,0.8,0.3L116,25.7z"/>
<path fill="#FFFFFF" d="M26.2,98.1c0.2-0.1,0.3-0.3-0.1-0.8l0.2-0.2l5.9,7.1c1.7,2,2.1,4.1,0.3,5.6c-1.1,0.9-2.4,0.8-3.5-0.1l0,0
	c0.7,1.5,0.8,3-0.6,4.1c-1.5,1.2-3.7,1.2-5.9-1.5l-6-7.2l0.2-0.2c0.4,0.4,0.6,0.4,0.8,0.2L26.2,98.1z M25.4,103.5l2.1,2.5
	c1.3,1.6,1.8,1.9,2.5,1.3c0.7-0.6,0.5-1.1-0.8-2.7l-2.1-2.5L25.4,103.5z M21.2,106.9l2.6,3.2c1.1,1.3,1.8,1.6,2.6,0.9
	c0.8-0.7,0.7-1.4-0.4-2.8l-2.6-3.2L21.2,106.9z"/>
<path fill="#FFFFFF" d="M32.4,120.5c-0.1,0.2-0.2,0.4,0.3,0.7l-0.2,0.2l-4.1-2.8l0.2-0.2c0.5,0.3,0.7,0.2,0.8,0l6.4-9.3
	c0.1-0.2,0.2-0.4-0.3-0.7l0.2-0.2l7.3,5c3,2,3.5,3.9,1.9,6.2c-1.3,1.8-3.1,2-5.1,1.3l0.1,4.9c0,0.4,0.1,0.6,0.3,0.8l-0.2,0.2
	l-4.2-2.9l0.2-0.2c0.3,0.2,0.5,0.2,0.7-0.1c0.1-0.2-0.1-4.4-0.1-5l-2-1.3L32.4,120.5z M36.2,115.1l3.4,2.3c1.2,0.8,1.9,0.5,2.3,0
	c0.4-0.6,0.4-1.3-0.8-2.2l-3.4-2.3L36.2,115.1z"/>
<path fill="#FFFFFF" d="M54.3,127l-0.3-0.1c0-0.3,0-0.6-0.5-0.8l-4.3-1.5l-0.7,2.1l7.3,2.5c0.3,0.1,0.4,0,0.6-0.5l0.3,0.1l-1.4,4
	l-0.3-0.1c0.1-0.4,0-0.6-0.2-0.6l-11.4-4l0.1-0.3c0.6,0.2,0.7,0,0.8-0.2l3.7-10.7c0.1-0.2,0.1-0.4-0.5-0.6l0.1-0.3l11.4,4
	c0.3,0.1,0.4,0,0.6-0.5l0.3,0.1l-1.4,4l-0.3-0.1c0.1-0.6,0.1-0.7-0.2-0.8l-7.3-2.5l-0.7,1.9l4.3,1.5c0.5,0.2,0.7,0,0.9-0.3l0.3,0.1
	L54.3,127z"/>
<path fill="#FFFFFF" d="M63.2,133.8l0-0.3c0.3,0,0.5-0.1,0.5-0.4c0-0.2-3.7-11-3.8-11.5c0-0.2-0.2-0.3-0.2-0.3V121l4.4,0l0,0.3
	c-0.3,0-0.5,0.1-0.5,0.4c0,0.3,1.8,5.5,2.4,7.5h0c0.6-1.8,2.2-7.2,2.2-7.5c0-0.3-0.3-0.3-0.5-0.4l0-0.3l5.8,0v0.3
	c-0.2,0.1-0.4,0.1-0.4,0.4c0,0.1,1.7,5.9,2.1,7.5h0c0.3-1.2,2.4-7.1,2.4-7.4c0-0.3-0.3-0.3-0.5-0.4V121l4.1,0l0,0.3
	c-0.2,0-0.4,0.2-0.4,0.5c-0.1,0.4-3.8,11.1-3.8,11.4c0,0.3,0.3,0.3,0.5,0.3l0,0.3l-5,0v-0.3c0.3,0,0.5-0.1,0.5-0.3
	c0-0.8-1.4-5.2-2.4-8.5h0c-0.8,2.8-2.5,8-2.5,8.5c0,0.2,0.2,0.3,0.5,0.3l0,0.3L63.2,133.8z"/>
<path fill="#FFFFFF" d="M92.9,124.7l-0.3,0.1c-0.2-0.3-0.4-0.4-0.9-0.3l-4.3,1.5l0.7,2.1l7.4-2.5c0.3-0.1,0.3-0.2,0.2-0.8l0.3-0.1
	l1.4,4l-0.3,0.1c-0.2-0.4-0.3-0.4-0.6-0.4l-11.4,3.9L85,132c0.6-0.2,0.6-0.4,0.5-0.6l-3.6-10.7c-0.1-0.2-0.2-0.3-0.8-0.2l-0.1-0.3
	l11.4-3.9c0.3-0.1,0.3-0.2,0.2-0.8l0.3-0.1l1.4,4l-0.3,0.1c-0.2-0.5-0.4-0.6-0.6-0.5l-7.4,2.5l0.6,1.9l4.3-1.5
	c0.5-0.2,0.5-0.4,0.5-0.8l0.3-0.1L92.9,124.7z"/>
<path fill="#FFFFFF" d="M104.2,123.2c0.1,0.2,0.3,0.3,0.8,0l0.2,0.2l-4.1,2.8l-0.2-0.2c0.5-0.4,0.4-0.6,0.3-0.7l-6.4-9.3
	c-0.1-0.2-0.3-0.3-0.8,0l-0.2-0.2l7.3-5c2.9-2,4.9-1.9,6.5,0.4c1.3,1.8,0.7,3.6-0.6,5.2l4.6,1.7c0.4,0.1,0.6,0.1,0.8,0l0.2,0.2
	l-4.1,2.9l-0.2-0.2c0.3-0.2,0.4-0.4,0.2-0.7c-0.1-0.2-4.1-1.5-4.7-1.7l-2,1.4L104.2,123.2z M100.4,117.7l3.3-2.3
	c1.2-0.8,1.2-1.6,0.8-2.2c-0.4-0.6-1.1-0.8-2.3,0l-3.3,2.3L100.4,117.7z"/>
<path fill="#FFFFFF" d="M111.4,100.4l2.9-3.5l0.2,0.2c-0.2,0.2-0.1,0.5,0,0.7l2.1,7.8l3.6,3c0.2,0.1,0.3,0.2,0.8-0.2l0.2,0.2
	l-3.2,3.8l-0.2-0.2c0.3-0.5,0.3-0.7,0.1-0.8l-3.3-2.7l-8.1-0.7c-0.9-0.1-1-0.1-1.1,0.1l-0.2-0.2l3.4-4.1l0.2,0.2
	c-0.2,0.2-0.4,0.5-0.2,0.7c0.2,0.2,3.4,0.4,4.9,0.5c-0.2-0.5-1.2-4.6-1.4-4.8c-0.2-0.2-0.4,0.1-0.6,0.2L111.4,100.4z"/>
<circle fill="#9A8348" stroke="#000000" stroke-width="0.615" cx="12.5" cy="70.2" r="10"/>
<circle fill="#9A8348" stroke="#000000" stroke-width="0.615" cx="127.9" cy="70.2" r="10"/>
<path fill="#FFFFFF" d="M111.6,88.3c-4.4,0.9-9,0.5-13.4,0c-1.5-0.2-5.6-1.2-6.5-1.2c-0.5,0-2.9,3-3.6,3.6c-2,1.7-4.2,3.6-6.5,4.9
	c-3.5,2-7.3,4-11.4,5.3c-12.4,3.8-27.5,1.5-33.8-6.6c-2.7-3.5-4.1-9.1-1.7-14.3c0.1-0.2,0.4-0.6,0.5-0.9c0.2-0.3,0.5-0.7,0.7-1
	c5.7-8,18.8-8.8,31.1-6.8c1.5-2.5,2.3-5.5,3.4-8.5c2-5.6,4.7-10.7,8.6-14.5c1.3-1.2,3.1-2.8,5-3.3c2.2-0.6,4.7-0.2,4.7,1.1
	c-2.5,1.8-4.5,3.2-6,6.5c-2,4.5,1.8,1,3.4,0c2.4-1.5,6.2-6.4,3.4-10.4c-3.1-4.3-12.8-3-14.8,1.7c-0.8,2,0.6,2.7,1.4,3.2l0.4,0.3
	c0,0-0.2,0.7-0.3,1.1c-1.3,4-6.5,10-11.4,6.2c-1.1-0.9-2.1-2.3-2.4-3.9c-0.5-3.2,0.9-5.4,1.8-7.2c4.8-9.4,21.4-14.6,31.9-6.5
	c6.5,4.9,4.6,15-1,19.6c-2.1,1.6-4.7,2.7-7.1,3.9c5,3.6,9.9,8.1,8,17.2c0,0.1-0.7,2.9-0.7,2.9c4.9,2.4,11.3,3.2,18.2,2.7L111.6,88.3
	z M78.5,64.1c-1.3,2.1-1.8,4.9-3.1,7.7c-1,2.2-0.1,1.8,1.8,2.5c2,0.7,4.7,1.5,6.8,2C87.4,70.4,85.1,65,78.5,64.1z M58.7,79.1
	c-2.4,0.1-4.6,0.6-6.1,1.7c-0.7,0.5-1.9,1.6-2.2,2.4c-0.6,1.4-0.3,2.9,0.5,3.7c4.9,5.4,11.5-3.4,12.2-7.7
	C61.8,79.1,59.8,79,58.7,79.1z M71.5,81c-1.9,2.6-3,4.9-5.4,7.1c-1,0.9-2.7,2.2-3.8,3c6-0.4,13.2-4,16.3-8
	C76.3,82.4,74.1,81.3,71.5,81z"/>
<circle fill="none" cx="70.2" cy="69.7" r="45.3"/>
<circle fill="none" stroke="#000000" stroke-width="0.791" cx="70.2" cy="69.7" r="45.4"/>
<circle fill="none" stroke="#000000" stroke-width="0.82" cx="70.2" cy="69.7" r="69.9"/>
<g>
	<path fill="#FFFFFF" d="M97.4,94.1c0,1.7-1.3,3-3,3c-1.7,0-3-1.3-3-3c0-1.6,1.4-3,3-3C96.1,91.1,97.4,92.5,97.4,94.1z M92.1,94.1
		c0,1.3,1,2.4,2.3,2.4c1.3,0,2.3-1,2.3-2.3c0-1.3-1-2.4-2.3-2.4S92.1,92.8,92.1,94.1z M93.9,95.6h-0.7v-3c0.3-0.1,0.6-0.1,1.1-0.1
		c0.6,0,0.8,0.1,1,0.2c0.2,0.1,0.3,0.4,0.3,0.6c0,0.3-0.3,0.6-0.6,0.7v0c0.3,0.1,0.5,0.3,0.5,0.7c0.1,0.5,0.1,0.6,0.2,0.7h-0.7
		c-0.1-0.1-0.1-0.4-0.2-0.7c-0.1-0.3-0.2-0.5-0.6-0.5h-0.3V95.6z M93.9,94h0.3c0.4,0,0.7-0.1,0.7-0.4c0-0.3-0.2-0.5-0.6-0.5
		c-0.2,0-0.3,0-0.4,0V94z"/>
</g>
</svg>
