<?xml version="1.0" encoding="utf-8"?>
<!-- Generator: Adobe Illustrator 16.0.0, SVG Export Plug-In . SVG Version: 6.00 Build 0)  -->
<!DOCTYPE svg PUBLIC "-//W3C//DTD SVG 1.1//EN" "http://www.w3.org/Graphics/SVG/1.1/DTD/svg11.dtd">
<svg version="1.1" id="Layer_1" xmlns="http://www.w3.org/2000/svg" xmlns:xlink="http://www.w3.org/1999/xlink" x="0px" y="0px"
	 width="1792px" height="1792px" viewBox="0 0 1792 1792" enable-background="new 0 0 1792 1792" xml:space="preserve">
<path fill="#717FD1" d="M896,128c139.333,0,267.833,34.333,385.5,103s210.833,161.833,279.5,279.5
	c68.667,117.667,103,246.167,103,385.5c0,167.333-48.833,317.833-146.5,451.5S1293.667,1573.667,1139,1625c-18,3.333-31.333,1-40-7
	s-13-18-13-30c0-2,0.167-27.5,0.5-76.5s0.5-93.833,0.5-134.5c0-64.667-17.333-112-52-142c38-4,72.167-10,102.5-18s61.667-21,94-39
	s59.333-40.167,81-66.5s39.333-61.333,53-105S1386,912.667,1386,856c0-79.333-26.333-148-79-206c24.667-60.667,22-128.667-8-204
	c-18.667-6-45.667-2.333-81,11s-66,28-92,44l-38,24c-62-17.333-126-26-192-26s-130,8.667-192,26
	c-10.667-7.333-24.833-16.333-42.5-27S616,474.5,578,459.5S511.667,440,493,446c-30,75.333-32.667,143.333-8,204
	c-52.667,58-79,126.667-79,206c0,56.667,6.833,106.667,20.5,150s31.167,78.333,52.5,105s48.167,49,80.5,67s63.667,31,94,39
	s64.5,14,102.5,18c-26,24-42.333,58.333-49,103c-14,6.667-29,11.667-45,15s-35,5-57,5s-43.833-7.167-65.5-21.5
	s-40.167-35.167-55.5-62.5c-12.667-21.333-28.833-38.667-48.5-52s-36.167-21.333-49.5-24l-20-3c-14,0-23.667,1.5-29,4.5
	s-7,6.833-5,11.5s5,9.333,9,14s8.333,8.667,13,12l7,5c14.667,6.667,29.167,19.333,43.5,38s24.833,35.667,31.5,51l10,23
	c8.667,25.333,23.333,45.833,44,61.5s43,25.667,67,30s47.167,6.667,69.5,7s40.833-0.833,55.5-3.5l23-4
	c0,25.333,0.167,54.833,0.5,88.5s0.5,51.833,0.5,54.5c0,12-4.333,22-13,30s-22,10.333-40,7
	c-154.667-51.333-280.833-143.833-378.5-277.5C176.833,1213.833,128,1063.333,128,896c0-139.333,34.333-267.833,103-385.5
	C299.667,392.833,392.833,299.667,510.5,231S756.667,128,896,128z M419,1231c2-4.667-0.333-8.667-7-12c-6.667-2-11-1.333-13,2
	c-2,4.667,0.333,8.667,7,12C412,1237,416.333,1236.333,419,1231z M450,1265c4.667-3.333,4-8.667-2-16c-6.667-6-12-7-16-3
	c-4.667,3.333-4,8.667,2,16C440.667,1268.667,446,1269.667,450,1265z M480,1310c6-4.667,6-11,0-19c-5.333-8.667-11-10.667-17-6
	c-6,3.333-6,9.333,0,18S474.667,1314,480,1310z M522,1352c5.333-5.333,4-11.667-4-19c-8-8-14.667-9-20-3c-6,5.333-4.667,11.667,4,19
	C510,1357,516.667,1358,522,1352z M579,1377c2-7.333-2.333-12.667-13-16c-10-2.667-16.333-0.333-19,7s1.667,12.333,13,15
	C570,1387,576.333,1385,579,1377z M642,1382c0-8.667-5.667-12.333-17-11c-10.667,0-16,3.667-16,11c0,8.667,5.667,12.333,17,11
	C636.667,1393,642,1389.333,642,1382z M700,1372c-1.333-7.333-7.333-10.333-18-9c-10.667,2-15.333,7-14,15s7.333,10.667,18,8
	S701.333,1378.667,700,1372z"/>
</svg>
