<?xml version="1.0" encoding="utf-8"?>
<!-- Generator: Adobe Illustrator 16.0.0, SVG Export Plug-In . SVG Version: 6.00 Build 0)  -->
<!DOCTYPE svg PUBLIC "-//W3C//DTD SVG 1.1//EN" "http://www.w3.org/Graphics/SVG/1.1/DTD/svg11.dtd">
<svg version="1.1" id="Layer_1" xmlns:sketch="http://www.bohemiancoding.com/sketch/ns"
	 xmlns="http://www.w3.org/2000/svg" xmlns:xlink="http://www.w3.org/1999/xlink" x="0px" y="0px" width="317px" height="387px"
	 viewBox="41 0 317 387" enable-background="new 41 0 317 387" xml:space="preserve">
<title>gulp</title>
<desc>Created with Sketch.</desc>
<g id="Page-1" sketch:type="MSPage">
	<g id="gulp" sketch:type="MSArtboardGroup">
		<g id="Gulp-Logo" transform="translate(0.000000, 1.000000)" sketch:type="MSLayerGroup">
			<path id="Cup" sketch:type="MSShapeGroup" fill="#DA4648" d="M192.697,303.739c-22.574,0-40.017-3.392-48.405-5.412
				c-5.736-1.382-10.342-2.812-13.841-4.281l11.187,19.113l4.376,59.719c0,6.695,21.268,12.122,47.503,12.122
				c26.235,0,47.503-5.427,47.503-12.122l3.465-60.369l10.585-18.519c-3.514,1.488-8.161,2.938-13.969,4.337
				C232.713,300.348,215.27,303.739,192.697,303.739z M255.433,109.411c-16.567,2.314-38.558,3.589-61.916,3.589
				c-23.359,0-45.348-1.275-61.916-3.589c-8.207-1.146-14.7-2.498-19.299-4.016c-1.097-0.363-2.956-0.982-4.745-1.968l10.265,94.474
				c0.477-1.627,1.008-3.252,1.597-4.871c1.205-3.318,2.599-6.563,4.181-9.731c1.583-3.168,3.306-6.163,5.169-8.984
				c1.862-2.82,3.845-5.417,5.946-7.79c2.102-2.372,4.258-4.412,6.472-6.122c2.213-1.708,4.447-3.044,6.702-4.006
				c2.256-0.962,4.49-1.444,6.703-1.444c2.549,0,5.015,0.697,7.397,2.091c2.381,1.393,4.607,3.65,6.681,6.769
				c0.476,0.697,0.778,1.402,0.903,2.115c0.127,0.714,0.189,1.386,0.189,2.016c0,1.493-0.357,2.672-1.071,3.534
				c-0.714,0.863-1.562,1.294-2.542,1.294c-0.898,0-1.731-0.473-2.501-1.418c-0.771-0.946-1.632-2.298-2.585-4.057
				c-0.897-1.593-1.884-2.745-2.962-3.459c-1.079-0.713-2.248-1.07-3.509-1.07c-1.961,0-4.055,0.813-6.282,2.439
				c-2.228,1.625-4.434,3.774-6.618,6.445c-2.186,2.672-4.28,5.724-6.283,9.159c-2.003,3.434-3.776,6.951-5.317,10.551
				c-1.541,3.602-2.765,7.153-3.676,10.653s-1.366,6.646-1.366,9.433c0,0.93,0.064,1.885,0.189,2.86
				c0.127,0.98,0.364,1.867,0.715,2.664c0.349,0.797,0.826,1.451,1.428,1.965c0.603,0.517,1.366,0.771,2.29,0.771
				c1.037,0,2.213-0.348,3.531-1.045c1.316-0.695,2.682-1.609,4.096-2.736c1.415-1.129,2.837-2.406,4.266-3.834
				c1.43-1.426,2.76-2.869,3.992-4.33c1.232-1.459,2.325-2.861,3.277-4.205c0.953-1.344,1.667-2.514,2.144-3.51l3.908-11.697
				c0.476-1.26,1.099-2.156,1.87-2.687c0.77-0.531,1.562-0.797,2.375-0.797c0.391,0,0.783,0.067,1.176,0.199
				c0.393,0.133,0.742,0.341,1.051,0.622c0.308,0.283,0.553,0.647,0.735,1.096c0.182,0.447,0.273,0.97,0.273,1.567
				c0,1.593-0.14,3.085-0.42,4.48c-0.28,1.395-0.637,2.754-1.072,4.082c-0.434,1.326-0.918,2.662-1.45,4.006
				c-0.532,1.344-1.051,2.746-1.554,4.207c-0.112,0.166-0.315,0.688-0.61,1.566c-0.294,0.881-0.65,1.983-1.071,3.311
				c-0.42,1.328-0.876,2.813-1.366,4.455c-0.491,1.643-0.994,3.318-1.512,5.027c-0.519,1.709-1.016,3.385-1.492,5.026
				c-0.477,1.644-0.905,3.127-1.282,4.455c-0.378,1.326-0.693,2.438-0.946,3.334c-0.252,0.896-0.406,1.427-0.462,1.595
				c-0.14,0.528-0.365,1.118-0.672,1.766c-0.308,0.646-0.672,1.262-1.093,1.842c-0.42,0.58-0.882,1.063-1.387,1.443
				c-0.504,0.381-1.022,0.572-1.555,0.572c-0.896,0-1.548-0.3-1.953-0.896c-0.407-0.599-0.609-1.693-0.609-3.285v-0.696
				c0-0.232,0.013-0.482,0.041-0.746c0.027-0.531,0.238-1.527,0.631-2.988c0.392-1.459,0.861-3.109,1.408-4.951
				c0.546-1.842,1.135-3.75,1.765-5.725c0.629-1.976,1.197-3.74,1.702-5.302c-1.487,1.66-3.096,3.312-4.833,4.953
				c-1.738,1.644-3.517,3.119-5.337,4.431c-1.822,1.311-3.657,2.381-5.505,3.211c-1.849,0.828-3.628,1.244-5.337,1.244
				c-1.961,0-3.649-0.433-5.065-1.296c-0.255-0.155-0.496-0.331-0.736-0.506l5.712,59.89c1.487,3.727,29.481,12.883,66.391,12.883
				c36.926,0,64.932-9.166,66.393-12.889l8.205-71.203c-0.68,0.623-1.34,1.231-1.973,1.821c-2.354,2.188-4.574,4.072-6.662,5.648
				c-2.086,1.575-4.125,2.797-6.113,3.657c-1.99,0.863-4.119,1.295-6.389,1.295c-2.13,0-3.775-0.465-4.938-1.395
				c-1.162-0.928-1.744-2.205-1.744-3.832v-0.373c0-0.115,0.015-0.258,0.043-0.424c0.11-0.994,0.547-2.141,1.303-3.434
				c0.757-1.295,1.666-2.64,2.73-4.031c1.063-1.395,2.198-2.805,3.403-4.232c1.205-1.426,2.318-2.777,3.342-4.057
				c1.021-1.275,1.869-2.445,2.541-3.508c0.675-1.063,1.011-1.924,1.011-2.588c0-0.398-0.142-0.713-0.42-0.947
				c-0.281-0.23-0.744-0.348-1.388-0.348c-1.121,0-2.276,0.291-3.467,0.871c-1.191,0.58-2.369,1.36-3.531,2.34
				c-1.162,0.979-2.297,2.1-3.403,3.358c-1.104,1.263-2.144,2.572-3.109,3.933c-0.967,1.36-1.848,2.729-2.646,4.106
				c-0.799,1.377-1.479,2.646-2.039,3.808c-0.168,0.364-0.406,0.881-0.715,1.543c-0.31,0.664-0.646,1.412-1.008,2.24
				c-0.365,0.829-0.75,1.686-1.156,2.563c-0.406,0.881-0.777,1.711-1.113,2.49c-0.336,0.778-0.637,1.475-0.902,2.09
				c-0.268,0.613-0.457,1.037-0.568,1.27c-0.141,0.299-0.37,0.861-0.692,1.691c-0.321,0.83-0.692,1.801-1.112,2.912
				s-0.861,2.281-1.324,3.51c-0.461,1.227-0.896,2.389-1.303,3.484c-0.406,1.094-0.765,2.057-1.07,2.887
				c-0.31,0.828-0.506,1.393-0.59,1.691c-0.279,0.862-0.609,1.674-0.986,2.439c-0.379,0.763-0.813,1.436-1.303,2.018
				c-0.49,0.579-1.051,1.043-1.683,1.392c-0.631,0.351-1.338,0.522-2.12,0.522c-1.011,0-1.843-0.242-2.503-0.723
				c-0.655-0.48-0.985-1.402-0.985-2.762c0-0.664,0.084-1.346,0.252-2.04c0.168-0.697,0.379-1.388,0.631-2.066
				c0.252-0.682,0.512-1.344,0.777-1.989c0.266-0.648,0.512-1.271,0.733-1.867c1.515-3.318,3.056-6.646,4.623-9.98
				c1.567-3.334,3.074-6.635,4.519-9.904c0.301-0.682,0.575-1.35,0.869-2.026c-0.089,0.086-0.175,0.176-0.261,0.26
				c-1.821,1.76-3.635,3.312-5.44,4.653c-1.81,1.345-3.603,2.414-5.379,3.212c-1.779,0.795-3.511,1.192-5.191,1.192
				c-1.148,0-2.107-0.182-2.877-0.547c-0.771-0.365-1.387-0.863-1.85-1.492c-0.464-0.631-0.793-1.377-0.988-2.24
				c-0.066-0.295-0.107-0.604-0.15-0.909c-0.492,0.383-0.988,0.756-1.488,1.108c-1.736,1.228-3.445,2.215-5.127,2.961
				c-1.68,0.746-3.194,1.119-4.537,1.119c-1.346,0-2.438-0.447-3.28-1.344c-0.84-0.895-1.259-2.422-1.259-4.578
				c0-1.527,0.224-3.303,0.671-5.326c-0.728,1.295-1.638,2.605-2.73,3.933c-1.094,1.327-2.34,2.538-3.74,3.635
				c-1.403,1.094-2.971,1.981-4.707,2.662c-1.738,0.68-3.629,1.021-5.673,1.021c-0.925,0-1.814-0.115-2.669-0.349
				s-1.604-0.631-2.248-1.194c-0.645-0.563-1.162-1.318-1.555-2.265c-0.392-0.945-0.588-2.133-0.588-3.56
				c0-0.032,0.056-0.539,0.168-1.52c0.112-0.979,0.469-2.521,1.072-4.629c0.602-2.105,1.534-4.836,2.793-8.188
				c1.262-3.353,3.041-7.416,5.338-12.193c0.588-1.262,1.268-2.166,2.037-2.713c0.772-0.548,1.604-0.822,2.5-0.822
				c0.393,0,0.799,0.059,1.219,0.174c0.422,0.117,0.813,0.299,1.178,0.548c0.363,0.249,0.658,0.565,0.883,0.946
				c0.222,0.381,0.336,0.82,0.336,1.318c0,0.332-0.043,0.647-0.127,0.945c-0.141,0.565-0.442,1.303-0.902,2.215
				c-0.463,0.914-1.003,1.959-1.62,3.137c-0.615,1.178-1.267,2.447-1.953,3.809c-0.687,1.359-1.324,2.77-1.912,4.23
				c-0.588,1.46-1.093,2.945-1.513,4.455s-0.659,2.979-0.714,4.404c0,0.598,0.139,1.145,0.42,1.643
				c0.28,0.498,0.743,0.746,1.387,0.746c1.82,0,3.557-0.598,5.211-1.791c1.652-1.195,3.178-2.68,4.58-4.455
				c1.401-1.775,2.668-3.684,3.803-5.725c1.135-2.041,2.08-3.906,2.836-5.601c0.533-1.127,1.002-2.34,1.408-3.633
				c0.406-1.296,0.848-2.488,1.324-3.584c0.477-1.097,1.022-2.008,1.639-2.738c0.615-0.729,1.387-1.095,2.311-1.095
				c1.011,0,1.808,0.382,2.396,1.145c0.588,0.764,0.881,1.676,0.881,2.737c0,0.598-0.188,1.42-0.566,2.465
				c-0.377,1.045-0.854,2.24-1.43,3.584c-0.574,1.345-1.197,2.779-1.869,4.306s-1.297,3.077-1.869,4.653
				c-0.576,1.576-1.051,3.119-1.43,4.629c-0.379,1.511-0.567,2.912-0.567,4.205c0,1.195,0.616,1.793,1.848,1.793
				c0.869,0,1.947-0.299,3.236-0.896c1.289-0.598,2.641-1.437,4.055-2.514c0.354-0.271,0.709-0.552,1.063-0.847
				c0.396-1.629,0.857-3.135,1.396-4.504c0.98-2.59,1.975-5.16,2.984-7.715c1.008-2.556,1.932-4.896,2.772-7.021l12.731-32.104
				c0.505-1.294,1.185-2.207,2.037-2.738c0.855-0.53,1.718-0.796,2.586-0.796c0.867,0,1.658,0.282,2.373,0.846
				c0.716,0.565,1.072,1.477,1.072,2.738c0,0.597-0.119,1.228-0.356,1.891c-0.238,0.664-0.539,1.377-0.904,2.14
				c-0.698,1.561-1.532,3.468-2.5,5.724c-0.967,2.257-2.004,4.713-3.108,7.367c-1.107,2.655-2.242,5.417-3.404,8.287
				c-1.162,2.871-2.297,5.666-3.404,8.387c-1.105,2.723-2.143,5.301-3.109,7.74c-0.965,2.439-1.799,4.555-2.5,6.346
				c-0.309,0.764-0.608,1.652-0.901,2.664c-0.296,1.012-0.441,1.916-0.441,2.713c0,0.496,0.084,0.895,0.253,1.193
				c0.168,0.298,0.489,0.449,0.967,0.449c0.588,0,1.321-0.207,2.205-0.623c0.883-0.414,1.834-0.963,2.856-1.644
				c1.022-0.68,2.088-1.459,3.192-2.34c1.107-0.879,2.207-1.791,3.3-2.735c1.094-0.947,2.137-1.894,3.131-2.839
				c0.994-0.944,1.885-1.815,2.67-2.612c0.185-0.191,0.403-0.326,0.646-0.429c0.474-1.411,0.904-2.797,1.285-4.149
				c0.226-0.598,0.533-1.443,0.926-2.539c0.392-1.096,0.84-2.174,1.345-3.236c0.504-1.061,1.071-1.982,1.7-2.762
				c0.632-0.779,1.312-1.17,2.039-1.17c1.121,0,1.935,0.258,2.438,0.771c0.504,0.517,0.757,1.271,0.757,2.267
				c0,0.199-0.027,0.514-0.085,0.945c-0.057,0.43-0.125,0.889-0.209,1.368s-0.176,0.938-0.272,1.369
				c-0.1,0.433-0.189,0.746-0.273,0.945c1.035-1.13,2.156-2.248,3.361-3.359c1.205-1.11,2.451-2.116,3.74-3.012
				c1.289-0.897,2.604-1.625,3.951-2.192c1.344-0.562,2.688-0.845,4.032-0.845c0.925,0,1.843,0.133,2.752,0.399
				c0.91,0.265,1.726,0.655,2.438,1.169c0.715,0.516,1.297,1.162,1.744,1.941s0.672,1.684,0.672,2.713
				c0,1.361-0.342,2.813-1.029,4.355c-0.686,1.543-1.547,3.094-2.584,4.652c-1.037,1.561-2.158,3.078-3.361,4.555
				c-1.205,1.477-2.332,2.82-3.383,4.031c-1.051,1.213-1.934,2.239-2.648,3.086c-0.713,0.848-1.086,1.42-1.112,1.719
				c0,0.398,0.127,0.721,0.379,0.971c0.252,0.248,0.672,0.373,1.26,0.373c0.478,0,1.179-0.266,2.103-0.797s2.221-1.451,3.887-2.762
				c1.666-1.312,3.783-3.07,6.346-5.277c1.758-1.512,3.816-3.314,6.135-5.365l11.114-102.93c-1.79,0.988-3.651,1.608-4.75,1.971
				C270.134,106.913,263.641,108.265,255.433,109.411z M193.451,84.99c-48.049,0-87,5.372-87,12c0,6.627,38.951,12,87,12
				c48.047,0,87-5.373,87-12C280.451,90.362,241.498,84.99,193.451,84.99z M228.188,100.497c0,1.555-4.629,2.816-10.34,2.816
				c-5.71,0-10.339-1.261-10.339-2.816c0-1.556,4.629-2.817,10.339-2.817C223.56,97.68,228.188,98.941,228.188,100.497z"/>
			<path id="Straw" sketch:type="MSShapeGroup" fill="#DA4648" d="M209.604,99.252c-0.051,0.082-0.078,0.165-0.078,0.25
				c0,1.007,3.727,1.822,8.323,1.822c4.596,0,8.323-0.815,8.323-1.822l10.871-44.078l43.231-45.645
				c0.015-0.014,0.027-0.028,0.041-0.043c0.915-1.035-0.94-4.238-4.022-6.985c-3.08-2.747-6.407-3.677-7.441-2.631
				c-0.008,0.008-0.016,0.016-0.021,0.023l-46.129,48.539L209.604,99.252z"/>
		</g>
	</g>
</g>
</svg>
