<?xml version="1.0" encoding="utf-8"?>
<!-- Generator: Adobe Illustrator 15.1.0, SVG Export Plug-In . SVG Version: 6.00 Build 0)  -->
<!DOCTYPE svg PUBLIC "-//W3C//DTD SVG 1.1//EN" "http://www.w3.org/Graphics/SVG/1.1/DTD/svg11.dtd">
<svg version="1.1" id="Layer_1" xmlns="http://www.w3.org/2000/svg" xmlns:xlink="http://www.w3.org/1999/xlink" x="0px" y="0px"
	 width="466.477px" height="656.402px" viewBox="472.592 239.598 466.477 656.402"
	 enable-background="new 472.592 239.598 466.477 656.402" xml:space="preserve">
<title>HTML5 Logo</title>
<polygon fill="#E44D26" points="518.767,843.326 476.891,373.631 937.043,373.631 895.121,843.253 706.685,895.493 "/>
<polygon fill="#F16529" points="706.967,855.563 859.232,813.35 895.058,412.035 706.967,412.035 "/>
<polygon fill="#EBEBEB" points="706.967,586.237 630.739,586.237 625.474,527.25 706.967,527.25 706.967,469.642 706.768,469.642 
	562.518,469.642 563.896,485.097 578.055,643.844 706.967,643.844 "/>
<polygon fill="#EBEBEB" points="706.967,735.849 706.714,735.914 642.559,718.592 638.457,672.648 607.281,672.648 580.629,672.648 
	588.699,763.098 706.701,795.856 706.967,795.782 "/>
<path d="M519.704,245.987h29.273v28.924h26.78v-28.924h29.275v87.587h-29.275v-29.33h-26.779v29.33h-29.273L519.704,245.987
	L519.704,245.987z"/>
<path d="M643.531,275.032h-25.773v-29.045h80.833v29.045h-25.783v58.542h-29.276V275.032L643.531,275.032z"/>
<path d="M711.42,245.987h30.526l18.777,30.776l18.758-30.776h30.537v87.587h-29.154v-43.413l-20.141,31.143h-0.504l-20.154-31.143
	v43.413H711.42V245.987z"/>
<path d="M824.588,245.987h29.284v58.636h41.169v28.951h-70.453V245.987z"/>
<polygon fill="#FFFFFF" points="706.768,586.237 706.768,643.844 777.703,643.844 771.017,718.555 706.768,735.896 706.768,795.827 
	824.863,763.098 825.729,753.366 839.267,601.706 840.672,586.237 825.148,586.237 "/>
<polygon fill="#FFFFFF" points="706.768,469.642 706.768,505.422 706.768,527.108 706.768,527.25 845.729,527.25 845.729,527.25 
	845.914,527.25 847.07,514.302 849.694,485.097 851.072,469.642 "/>
</svg>
