<?xml version="1.0" encoding="utf-8"?>
<!-- Generator: Adobe Illustrator 15.1.0, SVG Export Plug-In . SVG Version: 6.00 Build 0)  -->
<!DOCTYPE svg PUBLIC "-//W3C//DTD SVG 1.1//EN" "http://www.w3.org/Graphics/SVG/1.1/DTD/svg11.dtd">
<svg version="1.1"
	 id="svg3163" sodipodi:docname="JQuery_logo.svg" inkscape:version="0.48.2 r9819" xmlns:sodipodi="http://sodipodi.sourceforge.net/DTD/sodipodi-0.dtd" xmlns:inkscape="http://www.inkscape.org/namespaces/inkscape" xmlns:dc="http://purl.org/dc/elements/1.1/" xmlns:cc="http://creativecommons.org/ns#" xmlns:rdf="http://www.w3.org/1999/02/22-rdf-syntax-ns#" xmlns:svg="http://www.w3.org/2000/svg"
	 xmlns="http://www.w3.org/2000/svg" xmlns:xlink="http://www.w3.org/1999/xlink" x="0px" y="0px" width="99.5px" height="99.5px"
	 viewBox="29.5 239.5 99.5 99.5" enable-background="new 29.5 239.5 99.5 99.5" xml:space="preserve">
<sodipodi:namedview  id="namedview3297" inkscape:window-maximized="0" inkscape:cy="283.87742" inkscape:cx="261.79501" inkscape:zoom="0.64172345" showgrid="false" guidetolerance="10" gridtolerance="10" objecttolerance="10" borderopacity="1" bordercolor="#666666" pagecolor="#ffffff" inkscape:current-layer="svg3163" inkscape:window-y="508" inkscape:window-x="1335" inkscape:window-height="703" inkscape:window-width="831" inkscape:pageshadow="2" inkscape:pageopacity="0">
	</sodipodi:namedview>
<path id="path3257" inkscape:connector-curvature="0" fill="#0868AC" d="M35.827,264.2c-8.822,12.68-7.723,29.176-0.984,42.649
	c0.16,0.323,0.328,0.641,0.493,0.959c0.106,0.201,0.205,0.408,0.315,0.605c0.063,0.119,0.132,0.237,0.197,0.35
	c0.116,0.214,0.233,0.42,0.351,0.629c0.21,0.37,0.423,0.735,0.644,1.104c0.122,0.2,0.243,0.403,0.368,0.604
	c0.242,0.393,0.492,0.78,0.747,1.169c0.106,0.166,0.209,0.331,0.317,0.491c0.352,0.524,0.71,1.046,1.082,1.561
	c0.01,0.014,0.019,0.028,0.031,0.042c0.058,0.082,0.123,0.162,0.182,0.244c0.321,0.443,0.651,0.879,0.987,1.312
	c0.123,0.155,0.247,0.314,0.371,0.471c0.298,0.375,0.602,0.747,0.911,1.121c0.114,0.139,0.23,0.278,0.347,0.415
	c0.415,0.489,0.837,0.975,1.269,1.45c0.007,0.007,0.018,0.018,0.025,0.024c0.018,0.021,0.034,0.033,0.049,0.055
	c0.421,0.461,0.853,0.909,1.289,1.359c0.135,0.14,0.274,0.279,0.414,0.416c0.339,0.341,0.683,0.677,1.03,1.011
	c0.141,0.135,0.281,0.271,0.42,0.4c0.464,0.437,0.934,0.866,1.411,1.284c0.008,0.008,0.015,0.015,0.022,0.02
	c0.082,0.071,0.165,0.139,0.246,0.208c0.421,0.365,0.85,0.727,1.282,1.083c0.176,0.142,0.354,0.281,0.53,0.424
	c0.353,0.281,0.709,0.56,1.069,0.833c0.189,0.146,0.38,0.29,0.571,0.435c0.397,0.292,0.796,0.579,1.2,0.861
	c0.147,0.104,0.289,0.207,0.437,0.31c0.042,0.027,0.079,0.057,0.12,0.085c0.382,0.264,0.773,0.516,1.165,0.77
	c0.168,0.112,0.334,0.228,0.504,0.336c0.599,0.38,1.207,0.755,1.822,1.116c0.167,0.097,0.335,0.189,0.504,0.286
	c0.452,0.26,0.907,0.516,1.368,0.768c0.249,0.135,0.505,0.261,0.757,0.39c0.326,0.171,0.649,0.344,0.979,0.509
	c0.075,0.036,0.153,0.072,0.226,0.109c0.133,0.064,0.268,0.126,0.4,0.193c0.513,0.246,1.03,0.485,1.552,0.72
	c0.111,0.049,0.217,0.098,0.328,0.147c0.598,0.261,1.201,0.511,1.81,0.751c0.146,0.06,0.293,0.117,0.441,0.174
	c0.563,0.217,1.134,0.432,1.708,0.633c0.072,0.025,0.142,0.05,0.215,0.074c0.628,0.221,1.265,0.423,1.904,0.623
	c0.152,0.044,0.306,0.094,0.46,0.137c0.651,0.197,1.294,0.433,1.966,0.556c42.665,7.781,55.058-25.64,55.058-25.64
	c-10.408,13.562-28.884,17.137-46.39,13.156c-0.663-0.151-1.306-0.356-1.954-0.549c-0.164-0.05-0.326-0.099-0.487-0.148
	c-0.632-0.194-1.259-0.397-1.881-0.611c-0.086-0.031-0.173-0.063-0.258-0.093c-0.558-0.198-1.11-0.403-1.659-0.615
	c-0.155-0.063-0.31-0.122-0.465-0.185c-0.602-0.238-1.2-0.485-1.791-0.744c-0.122-0.052-0.238-0.106-0.358-0.156
	c-0.508-0.231-1.011-0.464-1.51-0.703c-0.144-0.069-0.289-0.138-0.436-0.209c-0.393-0.192-0.781-0.396-1.168-0.596
	c-0.259-0.136-0.523-0.266-0.78-0.408c-0.473-0.253-0.938-0.517-1.4-0.785c-0.157-0.088-0.316-0.173-0.474-0.264
	c-0.615-0.362-1.222-0.737-1.823-1.116c-0.167-0.107-0.328-0.22-0.492-0.33c-0.437-0.281-0.87-0.568-1.298-0.86
	c-0.142-0.099-0.278-0.2-0.418-0.295c-0.413-0.293-0.821-0.587-1.227-0.887c-0.185-0.137-0.365-0.274-0.544-0.411
	c-0.372-0.286-0.74-0.572-1.107-0.865c-0.165-0.133-0.331-0.264-0.493-0.396c-0.465-0.382-0.925-0.767-1.379-1.162
	c-0.048-0.042-0.1-0.083-0.151-0.127c-0.491-0.432-0.973-0.873-1.45-1.317c-0.139-0.133-0.273-0.262-0.409-0.393
	c-0.352-0.336-0.701-0.675-1.041-1.021c-0.137-0.137-0.274-0.271-0.409-0.408c-0.435-0.445-0.861-0.896-1.279-1.351
	c-0.021-0.024-0.042-0.045-0.063-0.067c-0.441-0.484-0.873-0.977-1.297-1.477c-0.114-0.136-0.225-0.269-0.339-0.402
	c-0.315-0.38-0.627-0.766-0.933-1.152c-0.114-0.14-0.229-0.284-0.342-0.428c-0.367-0.476-0.726-0.95-1.078-1.433
	c-9.719-13.257-13.21-31.541-5.442-46.557"/>
<path id="path3259" inkscape:connector-curvature="0" fill="#0868AC" d="M63.213,253.517c-6.38,9.181-6.034,21.471-1.057,31.181
	c0.835,1.628,1.773,3.208,2.822,4.711c0.956,1.369,2.016,3,3.284,4.101c0.46,0.507,0.941,1,1.432,1.486
	c0.124,0.127,0.251,0.248,0.376,0.373c0.478,0.463,0.961,0.918,1.463,1.359c0.021,0.016,0.039,0.036,0.059,0.052
	c0.005,0.005,0.011,0.008,0.014,0.014c0.555,0.486,1.126,0.954,1.708,1.413c0.129,0.097,0.257,0.201,0.388,0.302
	c0.583,0.448,1.177,0.887,1.787,1.306c0.018,0.013,0.034,0.025,0.052,0.037c0.269,0.186,0.543,0.36,0.815,0.538
	c0.131,0.087,0.255,0.176,0.387,0.256c0.435,0.279,0.876,0.551,1.324,0.811c0.064,0.039,0.126,0.074,0.187,0.11
	c0.387,0.222,0.778,0.441,1.171,0.653c0.137,0.078,0.276,0.146,0.416,0.218c0.271,0.143,0.543,0.286,0.819,0.423
	c0.042,0.021,0.085,0.039,0.124,0.059c0.563,0.275,1.129,0.541,1.709,0.796c0.124,0.054,0.251,0.103,0.376,0.153
	c0.463,0.198,0.93,0.387,1.4,0.569c0.199,0.074,0.4,0.146,0.599,0.219c0.427,0.157,0.854,0.302,1.285,0.446
	c0.196,0.063,0.386,0.127,0.581,0.187c0.614,0.193,1.219,0.432,1.859,0.538c32.941,5.457,40.546-19.905,40.546-19.905
	c-6.855,9.875-20.131,14.583-34.298,10.907c-0.629-0.165-1.25-0.346-1.866-0.54c-0.189-0.057-0.374-0.118-0.561-0.18
	c-0.438-0.143-0.873-0.292-1.305-0.45c-0.198-0.072-0.396-0.145-0.589-0.22c-0.473-0.181-0.941-0.369-1.405-0.566
	c-0.127-0.054-0.255-0.103-0.378-0.16c-0.582-0.252-1.154-0.52-1.719-0.798c-0.29-0.142-0.576-0.292-0.861-0.439
	c-0.166-0.084-0.333-0.17-0.498-0.256c-0.368-0.199-0.731-0.406-1.09-0.615c-0.085-0.049-0.174-0.095-0.261-0.147
	c-0.446-0.262-0.885-0.529-1.321-0.806c-0.134-0.086-0.263-0.178-0.398-0.266c-0.287-0.186-0.573-0.374-0.855-0.566
	c-0.607-0.419-1.197-0.858-1.78-1.302c-0.135-0.106-0.269-0.21-0.4-0.316c-6.201-4.896-11.116-11.586-13.454-19.173
	c-2.449-7.869-1.921-16.701,2.322-23.869"/>
<path id="path3261" inkscape:connector-curvature="0" fill="#0868AC" d="M86.246,245.535c-3.762,5.534-4.131,12.409-1.521,18.522
	c2.752,6.488,8.392,11.579,14.974,13.992c0.271,0.102,0.542,0.192,0.818,0.285c0.12,0.036,0.239,0.077,0.36,0.113
	c0.388,0.122,0.772,0.264,1.173,0.339c18.189,3.514,23.122-9.333,24.436-11.225c-4.322,6.222-11.585,7.716-20.496,5.554
	c-0.704-0.172-1.478-0.425-2.156-0.666c-0.87-0.31-1.727-0.664-2.56-1.063c-1.582-0.76-3.091-1.683-4.489-2.739
	c-7.974-6.05-12.927-17.592-7.725-26.992"/>
</svg>
