<?xml version="1.0" encoding="utf-8"?>
<!-- Generator: Adobe Illustrator 16.0.0, SVG Export Plug-In . SVG Version: 6.00 Build 0)  -->
<!DOCTYPE svg PUBLIC "-//W3C//DTD SVG 1.1//EN" "http://www.w3.org/Graphics/SVG/1.1/DTD/svg11.dtd">
<svg version="1.1" id="Layer_1" xmlns="http://www.w3.org/2000/svg" xmlns:xlink="http://www.w3.org/1999/xlink" x="0px" y="0px"
	 width="729px" height="792px" viewBox="-49.5 0 729 792" enable-background="new -49.5 0 729 792" xml:space="preserve">
<path fill="#CD6799" d="M526.646,430.298c-21.339,0.111-39.884,5.251-55.413,12.848c-5.698-11.283-11.396-21.338-12.401-28.712
	c-1.117-8.603-2.457-13.854-1.117-24.131c1.341-10.278,7.374-24.914,7.262-26.031c-0.111-1.117-1.34-6.368-13.629-6.479
	c-12.29-0.112-22.903,2.346-24.132,5.586c-1.229,3.24-3.575,10.613-5.14,18.21c-2.122,11.172-24.578,51.055-37.426,71.947
	c-4.134-8.155-7.708-15.305-8.49-21.003c-1.117-8.603-2.458-13.854-1.117-24.132c1.341-10.277,7.373-24.913,7.262-26.03
	c-0.112-1.117-1.341-6.368-13.63-6.479c-12.289-0.112-22.902,2.346-24.132,5.586c-1.229,3.24-2.569,10.837-5.139,18.21
	c-2.569,7.374-32.398,73.959-40.219,91.163c-4.022,8.826-7.485,15.864-9.943,20.668l0,0c0,0-0.112,0.336-0.447,0.895
	c-2.123,4.134-3.352,6.368-3.352,6.368s0,0,0,0.111c-1.676,3.017-3.463,5.81-4.357,5.81c-0.67,0-1.899-8.044,0.224-18.992
	c4.469-23.126,15.082-59.1,14.97-60.329c0-0.67,2.011-6.927-6.927-10.166c-8.714-3.24-11.842,2.122-12.624,2.122
	c-0.782,0-1.341,1.899-1.341,1.899s9.72-40.442-18.545-40.442c-17.652,0-42.006,19.327-54.072,36.756
	c-7.597,4.134-23.796,12.959-41.113,22.455c-6.591,3.688-13.406,7.374-19.774,10.837c-0.447-0.446-0.894-1.005-1.341-1.452
	c-34.186-36.532-97.419-62.34-94.738-111.384c1.005-17.875,7.15-64.797,121.439-121.774c94.068-46.364,168.92-33.516,181.88-5.027
	c18.545,40.666-40.107,116.188-137.304,127.137c-37.091,4.134-56.53-10.167-61.446-15.529c-5.139-5.586-5.921-5.921-7.82-4.804
	c-3.128,1.676-1.117,6.703,0,9.607c2.905,7.597,14.859,21.003,35.08,27.595c17.875,5.81,61.334,9.049,113.954-11.283
	c58.876-22.791,104.905-86.136,91.386-139.203c-13.518-53.849-102.894-71.612-187.465-41.56
	c-50.274,17.875-104.793,46.028-144.006,82.673c-46.587,43.57-53.961,81.443-50.944,97.308
	c10.837,56.307,88.482,92.95,119.54,120.099c-1.564,0.894-3.017,1.676-4.246,2.346c-15.529,7.709-74.74,38.655-89.487,71.389
	c-16.758,37.092,2.681,63.681,15.529,67.256c39.884,11.061,80.885-8.826,102.894-41.672s19.328-75.522,9.161-95.073
	c-0.112-0.224-0.224-0.446-0.447-0.67c4.021-2.347,8.155-4.804,12.177-7.15c7.932-4.692,15.752-9.049,22.456-12.624
	c-3.798,10.39-6.591,22.791-7.932,40.666c-1.676,21.003,6.927,48.263,18.21,58.987c5.027,4.692,10.948,4.805,14.747,4.805
	c13.183,0,19.104-10.949,25.695-23.908c8.044-15.864,15.306-34.298,15.306-34.298s-9.049,49.826,15.529,49.826
	c8.938,0,17.987-11.618,22.009-17.539c0,0.111,0,0.111,0,0.111s0.224-0.335,0.67-1.117c0.894-1.452,1.453-2.346,1.453-2.346
	s0-0.112,0-0.224c3.575-6.257,11.619-20.445,23.573-44.018c15.417-30.388,30.276-68.373,30.276-68.373s1.34,9.273,5.921,24.69
	c2.681,9.049,8.267,18.992,12.735,28.601c-3.574,5.027-5.809,7.82-5.809,7.82s0,0,0.111,0.111
	c-2.904,3.799-6.033,7.933-9.496,11.954c-12.178,14.523-26.701,31.17-28.712,35.974c-2.347,5.698-1.788,9.831,2.682,13.183
	c3.239,2.458,9.049,2.793,14.97,2.458c10.949-0.782,18.657-3.463,22.456-5.139c5.921-2.123,12.848-5.362,19.327-10.167
	c11.954-8.825,19.216-21.45,18.546-38.096c-0.335-9.161-3.352-18.322-7.039-26.925c1.117-1.564,2.123-3.128,3.24-4.692
	c18.881-27.595,33.516-57.871,33.516-57.871s1.341,9.273,5.922,24.69c2.234,7.82,6.814,16.312,10.836,24.578
	c-17.763,14.412-28.712,31.17-32.622,42.118c-7.038,20.333-1.563,29.494,8.826,31.617c4.692,1.005,11.396-1.229,16.312-3.352
	c6.256-2.011,13.63-5.475,20.668-10.613c11.954-8.826,23.461-21.115,22.791-37.762c-0.336-7.597-2.347-15.082-5.14-22.344
	c15.082-6.256,34.521-9.72,59.323-6.814c53.179,6.256,63.681,39.437,61.669,53.401c-2.011,13.965-13.183,21.563-16.869,23.908
	s-4.916,3.128-4.581,4.804c0.447,2.458,2.234,2.347,5.363,1.899c4.356-0.782,27.93-11.283,28.935-36.979
	C613.229,465.825,581.947,429.963,526.646,430.298z M116.412,568.606c-17.651,19.216-42.23,26.478-52.843,20.333
	c-11.396-6.591-6.927-34.968,14.747-55.301c13.183-12.401,30.164-23.908,41.448-30.946c2.57-1.564,6.368-3.799,10.949-6.592
	c0.782-0.446,1.229-0.67,1.229-0.67l0,0c0.894-0.559,1.788-1.117,2.681-1.676C142.554,522.802,134.958,548.386,116.412,568.606z
	 M244.889,481.242c-6.145,14.971-18.992,53.29-26.813,51.167c-6.703-1.787-10.837-30.834-1.341-59.546
	c4.804-14.412,14.971-31.617,20.892-38.32c9.608-10.725,20.221-14.3,22.791-9.942C263.658,430.298,248.688,471.857,244.889,481.242z
	 M350.911,531.963c-2.569,1.341-5.027,2.234-6.145,1.563c-0.782-0.446,1.117-2.234,1.117-2.234s13.295-14.3,18.546-20.779
	c3.017-3.799,6.591-8.268,10.39-13.295c0,0.447,0,1.006,0,1.452C374.819,515.764,358.285,527.271,350.911,531.963z M432.69,513.306
	c-1.899-1.341-1.564-5.81,4.804-19.774c2.458-5.475,8.267-14.636,18.21-23.461c1.117,3.575,1.899,7.038,1.788,10.278
	C457.38,501.91,441.963,509.954,432.69,513.306z"/>
</svg>
