<?xml version="1.0" encoding="utf-8"?>
<!-- Generator: Adobe Illustrator 16.0.0, SVG Export Plug-In . SVG Version: 6.00 Build 0)  -->
<!DOCTYPE svg PUBLIC "-//W3C//DTD SVG 1.1//EN" "http://www.w3.org/Graphics/SVG/1.1/DTD/svg11.dtd">
<svg version="1.1" id="Layer_1" xmlns="http://www.w3.org/2000/svg" xmlns:xlink="http://www.w3.org/1999/xlink" x="0px" y="0px"
	 width="729px" height="792px" viewBox="0 0 729 792" enable-background="new 0 0 729 792" xml:space="preserve">
<path fill="#CD6799" d="M630.135,452.412c-24.829,0.129-46.405,6.109-64.474,14.949c-6.63-13.128-13.26-24.828-14.429-33.408
	c-1.301-10.009-2.858-16.118-1.301-28.076c1.561-11.958,8.579-28.987,8.449-30.287c-0.129-1.299-1.56-7.409-15.856-7.538
	c-14.301-0.13-26.647,2.73-28.078,6.5c-1.43,3.77-4.159,12.348-5.979,21.187c-2.469,12.999-28.597,59.401-43.545,83.711
	c-4.812-9.488-8.969-17.809-9.879-24.438c-1.3-10.011-2.859-16.12-1.3-28.078c1.561-11.956,8.579-28.985,8.449-30.285
	c-0.131-1.3-1.562-7.409-15.858-7.539c-14.299-0.131-26.646,2.729-28.077,6.499c-1.43,3.77-2.99,12.609-5.979,21.188
	c-2.989,8.579-37.696,86.051-46.795,106.068c-4.681,10.27-8.709,18.458-11.569,24.047l0,0c0,0-0.13,0.392-0.521,1.042
	c-2.47,4.81-3.899,7.409-3.899,7.409s0,0,0,0.129c-1.95,3.511-4.029,6.761-5.069,6.761c-0.778,0-2.209-9.359,0.261-22.098
	c5.199-26.907,17.549-68.764,17.418-70.193c0-0.779,2.34-8.06-8.06-11.828c-10.139-3.771-13.778,2.469-14.688,2.469
	c-0.91,0-1.561,2.211-1.561,2.211s11.31-47.056-21.578-47.056c-20.538,0-48.874,22.487-62.913,42.767
	c-8.839,4.81-27.687,15.077-47.835,26.127c-7.669,4.291-15.598,8.579-23.007,12.607c-0.52-0.52-1.04-1.169-1.56-1.688
	c-39.777-42.506-113.348-72.535-110.229-129.597c1.169-20.798,8.319-75.392,141.295-141.685
	c109.448-53.944,196.54-38.996,211.619-5.849c21.576,47.315-46.666,135.185-159.755,147.924
	c-43.155,4.81-65.772-11.83-71.492-18.068c-5.979-6.5-6.889-6.889-9.099-5.59c-3.64,1.95-1.3,7.799,0,11.178
	c3.38,8.839,17.289,24.438,40.815,32.107c20.798,6.76,71.362,10.528,132.585-13.128C425.144,346.345,478.699,272.644,462.97,210.9
	c-15.728-62.654-119.717-83.321-218.116-48.355c-58.494,20.798-121.927,53.554-167.552,96.19
	c-54.203,50.695-62.783,94.76-59.273,113.219c12.609,65.514,102.949,108.146,139.085,139.736c-1.82,1.038-3.51,1.948-4.94,2.729
	c-18.068,8.969-86.96,44.976-104.118,83.062c-19.499,43.157,3.119,74.094,18.068,78.254c46.405,12.869,94.11-10.271,119.718-48.486
	c25.607-38.217,22.488-87.87,10.659-110.617c-0.13-0.262-0.261-0.52-0.52-0.779c4.678-2.731,9.488-5.591,14.168-8.319
	c9.229-5.459,18.328-10.528,26.127-14.688c-4.419,12.088-7.668,26.519-9.229,47.314c-1.951,24.438,8.059,56.154,21.187,68.633
	c5.849,5.458,12.738,5.59,17.159,5.59c15.338,0,22.228-12.739,29.896-27.816c9.359-18.457,17.809-39.905,17.809-39.905
	s-10.529,57.973,18.068,57.973c10.399,0,20.928-13.518,25.608-20.405c0,0.129,0,0.129,0,0.129s0.26-0.391,0.778-1.301
	c1.041-1.688,1.69-2.729,1.69-2.729s0-0.13,0-0.261c4.16-7.28,13.519-23.787,27.427-51.216
	c17.938-35.356,35.228-79.553,35.228-79.553s1.56,10.789,6.89,28.728c3.12,10.528,9.619,22.098,14.817,33.277
	c-4.158,5.849-6.761,9.099-6.761,9.099s0,0,0.13,0.13c-3.379,4.42-7.02,9.229-11.049,13.908
	c-14.169,16.897-31.066,36.267-33.406,41.854c-2.729,6.63-2.08,11.438,3.12,15.339c3.77,2.86,10.529,3.25,17.418,2.86
	c12.74-0.91,21.707-4.029,26.128-5.98c6.89-2.469,14.948-6.236,22.487-11.828c13.907-10.268,22.357-24.957,21.578-44.324
	c-0.39-10.659-3.9-21.318-8.189-31.327c1.3-1.82,2.471-3.641,3.77-5.46c21.969-32.106,38.997-67.332,38.997-67.332
	s1.56,10.788,6.89,28.727c2.601,9.1,7.928,18.979,12.607,28.598c-20.667,16.769-33.406,36.267-37.955,49.005
	c-8.189,23.657-1.818,34.315,10.269,36.786c5.459,1.17,13.26-1.432,18.979-3.9c7.28-2.34,15.857-6.37,24.048-12.349
	c13.908-10.27,27.297-24.566,26.518-43.937c-0.392-8.839-2.729-17.549-5.979-25.997c17.548-7.278,40.166-11.31,69.022-7.929
	c61.873,7.279,74.093,45.886,71.752,62.133c-2.34,16.248-15.34,25.089-19.628,27.817c-4.289,2.728-5.72,3.639-5.33,5.589
	c0.521,2.859,2.601,2.729,6.24,2.21c5.067-0.91,32.497-13.128,33.666-43.026C730.873,493.748,694.478,452.021,630.135,452.412z
	 M152.825,613.334c-20.537,22.358-49.135,30.808-61.483,23.658c-13.259-7.67-8.059-40.688,17.159-64.344
	c15.338-14.429,35.096-27.816,48.225-36.006c2.99-1.819,7.409-4.422,12.739-7.671c0.91-0.519,1.43-0.778,1.43-0.778l0,0
	c1.04-0.65,2.08-1.302,3.119-1.95C183.241,560.04,174.403,589.808,152.825,613.334z M302.309,511.686
	c-7.15,17.42-22.098,62.004-31.197,59.533c-7.799-2.079-12.609-35.875-1.561-69.281c5.59-16.77,17.419-36.786,24.308-44.587
	c11.179-12.478,23.527-16.638,26.518-11.566C324.146,452.412,306.728,500.767,302.309,511.686z M425.666,570.699
	c-2.989,1.561-5.85,2.6-7.15,1.818c-0.908-0.52,1.301-2.6,1.301-2.6s15.469-16.638,21.577-24.177
	c3.512-4.42,7.668-9.619,12.091-15.47c0,0.521,0,1.171,0,1.689C453.483,551.852,434.245,565.241,425.666,570.699z M520.816,548.992
	c-2.21-1.562-1.82-6.76,5.589-23.007c2.859-6.371,9.618-17.029,21.188-27.298c1.3,4.159,2.209,8.188,2.081,11.959
	C549.543,535.733,531.604,545.092,520.816,548.992z"/>
</svg>
